<svg xmlns="http://www.w3.org/2000/svg" fill="none" viewBox="0 0 128 128">
	<path
		d="M84.8473 54.8642C86.5069 54.441 88.3542 54.3776 90.0673 54.3925C93.3033 54.3324 99.513 54.9613 102.385 56.3598C105.394 60.9255 108.449 69.4965 108.378 74.8067L108.391 74.8548C108.935 77.3489 108.803 81.8654 108.444 84.425C108.282 85.5149 108.147 86.615 107.918 87.6948C105.804 100.276 97.2747 111.582 86.1441 119.019C81.1811 122.287 75.6249 124.732 69.7308 126.243C68.4606 126.579 67.0221 126.974 65.7025 127.116C65.3245 127.181 64.9408 127.261 64.5588 127.299C63.3713 127.473 62.0489 127.77 60.8491 127.746C59.7169 127.91 58.4866 128.003 57.3417 127.957C51.18 128.259 44.499 126.943 38.7325 125.043C25.1302 120.492 14.0173 111.278 7.76366 99.3667C3.59931 91.2552 2.12144 82.7143 3.10928 73.8059C3.37747 71.3884 3.78418 68.7233 4.69592 66.4379C9.67422 63.4051 14.7699 60.9563 20.3507 58.9582C21.8549 58.4196 23.4563 57.7941 25.0555 57.5656C26.7981 58.207 28.4997 58.9416 30.2457 59.5784C32.2723 60.3171 34.345 60.9461 36.3957 61.6258C39.3262 62.429 42.2653 62.9454 45.2286 63.6102C56.6221 65.1046 63.5991 63.0811 73.6725 58.6123C77.2136 57.0414 80.9365 55.4567 84.8473 54.8642ZM33.1514 87.9163C31.453 87.6677 26.4969 86.5676 25.1932 87.4858C24.6343 87.8792 24.4307 88.4651 24.387 89.0891C24.3096 90.1915 24.6284 91.3826 24.9063 92.4474C26.3276 97.8884 29.514 102.96 33.6636 107.056C40.175 113.483 49.166 118.07 58.9018 118.436C68.179 118.747 77.2067 115.662 83.9715 109.868C89.9663 104.797 94.1727 98.218 96.0565 90.9647C96.1037 89.7659 96.3204 88.7659 96.0136 87.5591C95.5673 87.3887 94.9634 87.0945 94.4757 87.1018C92.6118 87.1304 90.6075 87.7695 88.7569 88.053C83.9879 88.7886 79.1824 89.3145 74.3576 89.6287C72.6142 89.7378 70.6401 89.9217 68.9024 89.7691C67.3064 89.8133 65.7087 89.8768 64.1121 89.845C57.3921 90.0174 50.4735 89.6153 43.7796 89.0325C41.4516 88.8299 39.0679 88.6848 36.767 88.3145C35.5654 88.2808 34.3425 88.0667 33.1514 87.9163ZM80.1766 66.66C78.1048 68.2418 76.9251 70.5895 76.9645 73.0522C77.0036 75.5147 78.2578 77.8304 80.3789 79.3565C81.0525 79.8412 81.7986 80.2355 82.5949 80.527C86.5969 81.9931 91.1773 80.6598 93.5056 77.3511C95.8339 74.0425 95.2522 69.6928 92.1202 66.9904C88.9881 64.2879 84.1901 63.9959 80.6916 66.295C80.5153 66.411 80.3433 66.5328 80.1766 66.66ZM42.0917 81.3305C44.4369 80.9581 46.5361 79.9806 47.9352 78.1746C49.4299 76.2456 49.9716 73.7041 49.51 71.3925C49.1036 69.2985 47.7913 67.441 45.8681 66.2367C44.0296 65.0765 42.0143 64.7874 39.8189 64.898C37.309 65.3714 35.2342 66.4086 33.8024 68.4C32.3937 70.3596 31.9864 72.7471 32.5274 75.0242C33.0367 77.1693 34.3854 79.0682 36.4324 80.2496C38.1176 81.2125 40.1244 81.5959 42.0917 81.3305Z" />
	<path
		d="M41.7991 105.732C43.4843 104.65 45.2963 103.779 47.1939 103.139C54.9111 100.511 65.6774 100.366 73.3954 103.035C75.3478 103.71 77.0713 104.778 78.9127 105.686C78.2436 106.279 77.5849 106.887 76.8658 107.42C76.3567 107.9 75.8668 108.3 75.2842 108.691C70.9576 112.422 63.8252 113.711 58.2873 113.283C55.7752 113.068 53.3051 112.506 50.9476 111.611C48.5527 110.754 46.1762 109.483 44.2304 107.834C43.3323 107.301 42.5262 106.477 41.7991 105.732Z" />
	<path
		d="M54.4286 6.93974C65.1829 4.79556 78.1249 7.0666 87.3576 12.6882C95.8391 17.8524 101.492 26.4946 104.123 35.5556C97.2108 33.5806 85.8531 33.2674 78.6913 33.685C75.2944 33.8831 72.0023 34.3092 68.6327 34.7263L68.4189 34.7502C67.3283 35.0253 66.1738 35.1642 65.0665 35.3849C63.3438 35.7285 61.6277 36.1413 59.9267 36.5687C52.5702 38.4669 45.4298 41.0378 38.6078 44.2441C36.9942 45.0042 35.3519 45.7658 33.811 46.6498C32.3626 47.4804 30.9506 48.4484 29.4478 49.1831L29.3309 49.239C28.646 40.7269 28.5298 32.5164 32.0037 24.4363C32.6138 23.017 33.2888 21.3679 34.258 20.1413C35.8212 17.5972 38.1409 14.5704 40.7009 12.8679C41.8559 11.5528 45.8452 9.38092 47.5714 8.85916C49.4728 7.91405 52.272 7.14764 54.4286 6.93974Z" />
	<path
		d="M81.3248 36.9462C82.4131 36.5918 84.0822 36.7109 85.2302 36.7026C91.2639 36.6582 97.2042 37.0798 103.148 38.1382C104.58 38.3933 106.252 38.6296 107.593 39.1711C109.743 39.6224 111.855 40.24 113.91 41.0178C118.528 42.5067 125.797 45.7148 128.088 50.2227C128.257 50.5552 128.448 50.939 128.544 51.2964C129.012 53.0232 128.973 54.5982 128.296 56.2541C127.445 58.5556 124.917 60.2898 122.778 61.2832C120.825 62.1901 118.698 62.6882 116.599 63.124C115.637 63.286 114.612 63.498 113.636 63.4763C113.306 63.4691 113.325 63.4525 113.096 63.215C112.629 62.2463 112.372 61.0551 112.047 60.024C114.981 59.8262 117.992 59.4448 120.683 58.1856C122.219 57.4664 123.791 56.3389 124.361 54.6702C124.73 53.5883 124.677 52.2761 124.154 51.252C122.524 48.0604 118.176 46.2651 114.997 45.1958C110.828 43.7939 106.507 43.2074 102.12 43.2216C89.236 43.2637 80.3368 48.3667 69.1449 53.9089C57.786 59.5342 47.738 59.2381 36.0145 55.2805L34.7034 54.7136C33.4952 54.4015 32.3007 53.728 31.1824 53.1774C42.0097 45.9217 58.77 39.9795 71.6495 37.9647C72.207 37.8724 72.7632 37.8111 73.3253 37.7543C74.5426 37.5166 75.7607 37.3895 76.9929 37.2628C78.4405 37.2235 79.8627 36.9628 81.3248 36.9462Z" />
	<path
		d="M7.98938 28.954C8.0883 28.7308 8.05284 28.7832 8.17016 28.6054C15.1667 17.9974 27.2544 11.2839 39.9159 8.552C33.1441 13.5773 28.499 19.6506 25.6303 27.3139L25.4034 27.8788C23.3402 33.9768 22.6677 40.0909 22.8405 46.4727C22.8895 48.2878 23.0719 50.0974 23.1338 51.9103C21.2457 52.9384 19.2076 53.8115 17.2398 54.7001C16.7652 54.9285 16.2932 55.1713 15.8109 55.3847C14.1609 56.343 12.3723 57.1358 10.6784 58.0329C7.5089 59.6912 4.42445 61.4909 1.43573 63.426C1.1283 61.835 0.8542 60.0654 0.984585 58.448C0.865399 57.0862 0.829133 55.7189 0.876061 54.353C0.73821 50.7336 1.31521 42.8696 2.91663 39.6216C3.35445 36.9394 6.24051 31.2955 7.98938 28.954Z" />
	<path
		d="M49.9108 0.0682081C51.39 -0.0495701 53.2039 -0.101767 54.5231 0.665933C55.7979 1.40767 56.2281 2.60579 56.5823 3.95034C54.1012 3.91367 51.6204 4.04911 49.158 4.35641C47.1478 4.7068 45.1268 5.02908 43.1318 5.45897C43.2025 5.21084 43.2747 4.96296 43.3483 4.7159C43.561 3.97925 43.7624 3.38153 44.2239 2.75436C45.5578 0.940571 47.8088 0.391563 49.9108 0.0682081Z" />

	<style>
		path {
			fill: #000;
		}

		@media (prefers-color-scheme: dark) {
			path {
				fill: #FFF;
			}
		}
	</style>
</svg>
