<svg width="128" height="128" viewBox="0 0 128 128" fill="none" xmlns="http://www.w3.org/2000/svg">
<path d="M96.6055 47.1655C98.7637 46.8495 102.358 47.6839 103.818 49.5952C104.334 50.1707 104.76 50.8427 105.074 51.5562C105.934 53.5489 106.016 55.62 105.719 57.906C105.37 60.2874 104.887 61.5561 104.371 62.8582C104.158 63.3744 103.844 63.8021 103.523 64.2149C103.061 64.819 102.581 65.4153 102.279 66.3542C102.208 66.5718 102.15 66.8067 102.091 67.0483L102.086 67.0682C102.02 67.3345 101.949 67.6165 101.852 67.9013L101.861 67.8784C101.791 68.0911 101.706 68.3027 101.602 68.5073C101.515 68.6769 101.409 68.8126 101.305 68.9446L101.297 68.9543C101.185 69.0962 101.075 69.235 100.991 69.4099C100.669 70.0822 100.354 70.7395 100.065 71.3113C99.6869 72.0586 99.35 72.6687 99.1001 73.0233C98.6506 73.6626 98.2615 74.4015 97.8311 75.1545C97.5046 75.7265 97.1624 76.2943 96.7713 76.8093C95.664 78.2751 94.1288 80.2938 92.3429 82.2399C91.6672 82.9768 90.9682 83.469 90.0573 84.0569C89.49 84.4212 88.8376 84.8223 88.0372 85.3214C87.5831 85.604 87.2605 85.9302 86.9553 86.2298C86.6744 86.5055 86.4085 86.758 86.0758 86.9221C85.7819 87.0667 85.5307 87.0505 85.294 87.0334L85.2843 87.0327C85.024 87.0137 84.7812 86.9961 84.5068 87.1866C84.3589 87.2891 84.2051 87.4598 84.0186 87.6613C83.9449 87.741 83.8656 87.8256 83.78 87.9127C83.7712 87.8841 83.7601 87.8603 83.7507 87.8429C83.6839 87.7199 83.3457 87.8201 83.0141 87.9113C82.8816 87.9479 82.7497 87.9839 82.6372 88.0047C82.2237 88.0826 81.5306 88.3995 81.0032 88.6437C80.78 88.7477 80.5581 88.7987 80.2993 88.8554L80.2559 88.8649C80.0368 88.9128 79.7911 88.9665 79.4945 89.0578C79.3139 89.1133 79.1646 89.1291 79.0412 89.1414L79.035 89.142C78.9483 89.1507 78.8743 89.158 78.8103 89.1771C78.7537 89.194 78.7236 89.2484 78.6898 89.3097L78.6896 89.31C78.6652 89.3542 78.6385 89.4021 78.5984 89.442C78.5026 89.5372 78.3586 89.6087 78.2482 89.6305C78.1973 89.6405 78.1538 89.6398 78.1107 89.639L78.1086 89.6389C78.0591 89.638 78.0097 89.637 77.948 89.6526C77.6741 89.7216 77.4291 89.8498 77.1741 89.9833L77.1378 90.0023C76.8432 90.1563 76.5321 90.3139 76.1567 90.3868C76.0385 90.4098 75.9078 90.4188 75.7813 90.4267L75.7687 90.4275C75.6408 90.4356 75.5171 90.4434 75.4158 90.4648C74.9904 90.5548 74.6251 90.7569 74.2847 90.939C74.0582 91.0601 73.8423 91.1725 73.6316 91.2362C73.2451 91.3527 73.0599 91.516 72.9234 91.6368C72.8524 91.6994 72.7942 91.7505 72.7272 91.7764C72.6629 91.7867 72.5976 91.7964 72.5335 91.8053L72.5327 91.8054C72.4731 91.8088 72.4116 91.8123 72.3561 91.8266C72.3519 91.8277 72.3478 91.8289 72.3436 91.83C71.9836 91.8736 71.6251 91.8997 71.2714 91.9207C70.4814 91.9669 69.6917 91.993 68.8885 92.1428C68.7214 92.1739 68.5549 92.2397 68.3847 92.3069L68.3634 92.3154C68.1459 92.4013 67.9214 92.4876 67.6855 92.5051C67.1285 92.5464 66.5586 92.5068 65.9981 92.4576C65.1587 92.3834 64.3474 92.287 63.6018 92.4202C63.3724 92.4614 63.1472 92.526 62.9202 92.591L62.8738 92.6043C62.7385 92.643 62.6021 92.6814 62.4641 92.7141C62.4945 92.649 62.5111 92.5876 62.5265 92.5303C62.5583 92.4122 62.5858 92.3112 62.7174 92.2269C63.029 92.0279 63.3739 91.7475 63.3356 91.5428C63.3254 91.4873 63.3339 91.4255 63.343 91.3632C63.3661 91.2069 63.3887 91.0479 63.1114 90.9743C62.924 90.9251 62.4459 90.8069 62.1353 90.9173C62.0679 90.9413 62.0256 90.9913 61.9786 91.047L61.9779 91.0477L61.9774 91.0483C61.893 91.1486 61.7927 91.2676 61.5008 91.2843C61.4516 91.2871 61.3981 91.2891 61.3427 91.2907L61.3206 91.2913C61.1057 91.2975 60.8711 91.3043 60.7771 91.3791C60.6651 91.4684 60.6814 91.5787 60.7009 91.7075L60.7014 91.7111C60.7264 91.8779 60.7561 92.0762 60.5095 92.2978C60.4602 92.3419 60.3705 92.3525 60.3026 92.3603C60.2548 92.3659 60.2183 92.3703 60.2137 92.3842C60.2086 92.4001 60.2214 92.4348 60.2379 92.4787L60.2382 92.4794C60.2961 92.634 60.3977 92.9054 59.9006 92.8819C59.7676 92.8753 59.6163 92.8512 59.4808 92.8289L59.4648 92.8263C59.2722 92.7946 59.1144 92.7687 59.0888 92.8085C59.079 92.824 59.0714 92.8412 59.0648 92.859C58.9047 92.8396 58.7444 92.8195 58.5841 92.7985C58.3837 92.7272 58.0897 92.7014 57.7326 92.6659C57.6457 92.6573 57.554 92.6478 57.4588 92.637C57.1459 92.5885 56.8325 92.537 56.5189 92.4823C56.273 92.4259 56.008 92.3512 55.742 92.2529C55.2046 92.055 54.7535 91.7881 54.3172 91.5223C54.1328 91.4102 53.9532 91.2983 53.7716 91.1918C53.8494 91.1983 53.9199 91.2018 53.9753 91.1983C54.3568 91.1747 54.5392 91.017 54.7032 90.8717L54.7055 90.8696C54.814 90.7736 54.9163 90.6831 55.0655 90.6388C55.339 90.5571 55.3392 90.4061 55.3393 90.2944V90.2927C55.3393 90.2346 55.34 90.1872 55.3779 90.1653C55.4082 90.148 55.4712 90.1479 55.5364 90.1478H55.5381C55.5954 90.1477 55.6546 90.1473 55.6942 90.1356C56.1727 89.9922 56.0601 89.8456 55.898 89.6346L55.8953 89.6311C55.8049 89.5134 55.7 89.375 55.6699 89.2055C55.6493 89.0279 55.6746 88.9816 55.9141 88.9514C55.7496 88.8388 55.5858 88.7253 55.4227 88.611C55.3521 88.6043 55.2902 88.6473 55.2004 88.7208C55.0411 88.8526 54.59 88.8288 54.2477 88.8068L54.2217 88.8051C54.0728 88.7956 53.9438 88.7873 53.8666 88.7948C53.4324 88.8362 53.5131 89.0349 53.5871 89.2111L53.5873 89.2116C53.6277 89.3082 53.665 89.3976 53.6108 89.4491C53.5878 89.4711 53.6077 89.5017 53.6279 89.5329L53.6283 89.5335L53.6287 89.534C53.6443 89.5581 53.6602 89.5827 53.6567 89.6038C53.6309 89.7583 53.3612 89.8217 53.1086 89.8776L53.1008 89.8794C52.959 89.9109 52.8239 89.941 52.7422 89.9857C52.7169 89.9996 52.6958 90.0147 52.6759 90.0296C52.6468 90.0513 52.6185 90.0719 52.5782 90.0859C52.507 90.1107 52.3865 90.114 52.2469 90.1115L52.2569 90.1137C52.2162 90.1132 52.1739 90.1121 52.1308 90.111L52.1077 90.1104C52.0163 90.108 51.9216 90.1055 51.8308 90.1065C51.7041 90.108 51.6462 90.157 51.5854 90.2085L51.5843 90.2094C51.5411 90.246 51.4958 90.2835 51.4238 90.3058C51.2935 90.3461 51.0575 90.3133 50.8389 90.2802L50.8319 90.2792C50.7392 90.2652 50.6496 90.2517 50.5727 90.2443C50.5406 90.2412 50.5232 90.2475 50.5161 90.2607C50.1548 90.2137 49.8089 90.1668 49.4722 90.117C47.7898 89.8618 46.3077 89.5656 44.3695 88.5344C44.0043 88.3383 43.6005 88.1565 43.1871 87.9813C41.9244 87.2989 40.7009 86.554 39.521 85.7546C39.3544 85.487 39.1261 85.2052 38.8365 84.9078C38.2925 84.3488 37.6713 83.8834 36.9533 83.3091C36.4243 82.8851 35.8427 82.4007 35.2227 81.7751C34.1801 80.7213 33.1478 79.6253 31.9983 78.3801C30.8509 77.144 29.6193 75.6604 28.7939 74.5795C28.3379 73.988 27.9742 73.2909 27.6524 72.6299C27.2024 71.7057 26.8427 70.8611 26.3711 70.4991C26.2265 70.3878 26.0459 70.3037 25.8684 70.2211L25.8434 70.2094C25.7113 70.1479 25.5818 70.0858 25.4717 70.0149C25.3331 69.7377 25.1964 69.4559 25.0643 69.173C24.925 68.6186 24.6719 67.7933 24.1836 67.1102C24.0684 66.8127 23.9553 66.5081 23.8532 66.2163C23.6293 65.5822 23.4282 64.9455 23.2506 64.3074C23.1927 64.0989 23.1353 63.8843 23.0812 63.6711L23.0798 63.665C22.9706 63.2348 22.8721 62.8035 22.7846 62.3714C22.7474 62.1871 22.7121 62.0028 22.6789 61.8187C22.5951 61.3536 22.5214 60.873 22.4648 60.4081C22.4349 60.1621 22.4077 59.911 22.3848 59.6599C22.3475 59.2517 22.321 58.8461 22.3049 58.4352C22.2793 57.7745 22.2829 57.1189 22.3165 56.4641C22.322 56.3571 22.3448 56.2543 22.3805 56.179C22.4162 56.1037 22.4556 56.0504 22.5023 56.0505C22.4031 56.0504 22.3186 55.9679 22.2452 55.8069C22.172 55.6499 22.1289 55.4226 22.125 55.1983C22.1359 53.6483 22.0716 51.4018 24.0351 50.2073C25.7938 49.2551 27.4548 49.3023 29.0701 49.1814C29.3038 49.1706 29.5197 49.1618 29.7557 49.1558C30.0374 49.5705 30.4298 49.8818 31.152 50.081C31.5227 50.1829 32.0575 50.2832 32.4719 50.2977C32.8445 50.3091 33.1504 50.2731 33.4524 50.2583C33.7692 50.2451 34.0844 50.2526 34.4431 50.4093C35.044 50.6724 35.6616 50.9772 36.2343 51.4163C36.4434 51.5765 36.6454 51.7528 36.8351 51.9434C37.7869 53.4354 38.1798 54.9264 38.5591 56.3659L38.5708 56.4104L38.5684 56.3987C38.6339 56.643 38.7069 56.8898 38.786 57.1352C38.8976 57.7243 39.0424 58.2707 39.2236 58.7122C39.386 59.108 39.6152 59.4406 39.8701 59.7545C39.9813 59.9759 40.0936 60.1893 40.2119 60.4064C40.9724 61.7995 41.8839 63.1249 42.8955 64.3651C43.5514 65.4317 44.3098 66.5281 45.4845 67.7894C45.9911 68.331 46.4856 68.8761 46.9791 69.3829C47.7078 70.1319 48.4403 70.8003 49.1741 71.2476C49.6642 71.5467 50.1317 71.9246 50.6156 72.2848C51.2592 72.7657 51.9422 73.2173 52.6592 73.3789C53.1104 73.4811 53.5355 73.5304 53.9222 73.5611C54.5414 73.6113 55.0665 73.6168 55.4993 73.7248C55.7278 73.7819 55.9481 73.8217 56.1588 73.8481C56.7104 73.9172 57.2408 73.9056 57.7206 73.8775C58.5247 73.8302 59.1893 73.7425 59.7879 73.8748C59.8798 73.8947 59.9825 73.9205 60.0993 73.9489C60.7172 74.0974 61.7424 74.3196 63.1963 74.0399C63.7119 73.9401 64.1878 73.7578 64.6433 73.5719C65.3122 73.3 65.946 73.0205 66.6708 72.9528C66.7778 72.9427 66.8965 72.9653 67.0054 72.986L67.01 72.9869C67.1499 73.0135 67.2723 73.0361 67.3302 72.9813C67.4998 72.8207 67.78 72.6213 68.0785 72.4005C68.298 72.2383 68.5281 72.0643 68.7341 71.8883C70.5169 71.3616 72.2671 70.7208 73.921 69.9692C74.6804 69.6238 75.4203 69.2537 76.123 68.8617C76.5787 68.8324 77.0247 68.7771 77.4731 68.6591C78.0545 68.5058 78.7266 68.1516 79.4927 67.6424C79.9542 67.3333 80.4426 66.9713 80.9179 66.5595L80.9013 66.5781C81.0061 66.4854 81.1199 66.3792 81.2402 66.2622C82.4753 65.0514 83.4518 63.2204 83.9176 62.0674C84.0184 61.8198 84.1157 61.5693 84.2156 61.301C84.5506 60.3523 85.0653 59.0673 85.4831 57.0781L85.4567 57.187C85.4824 57.0382 85.5099 56.8874 85.5393 56.7346C86.0111 53.8927 87.5801 50.6819 89.9096 49.2282C91.0194 48.4812 91.9958 48.1376 92.6965 47.9046C93.5941 47.6107 94.5966 47.41 95.5836 47.286L95.4982 47.2957C95.867 47.2405 96.2085 47.1981 96.6055 47.1655Z" fill="#60A5FA"/>
<path d="M62.4397 35.1499C62.99 35.1036 63.5482 35.1058 64.1044 35.1539C64.5015 35.3578 64.8961 35.5791 65.4093 35.8225C65.6304 35.9279 65.8281 36.0748 66.0118 36.2207C66.2814 36.4353 66.5193 36.6469 66.7842 36.7284C66.9636 36.7841 67.098 36.9303 67.2277 37.0792C67.4042 37.2804 67.5605 37.4785 67.8379 37.4844C68.0124 37.4882 68.1884 37.4699 68.3552 37.4577C68.6203 37.438 68.8562 37.4295 68.9856 37.5232C69.2296 37.7001 69.5078 37.7765 69.7553 37.852C70.0542 37.9442 70.3021 38.0293 70.3584 38.2642C70.3668 38.2997 70.3738 38.3428 70.3813 38.3915C70.4204 38.6483 70.4683 39.0464 70.8683 39.3195C71.0058 39.4137 71.1916 39.4616 71.3748 39.5089L71.396 39.5143C71.6569 39.5805 71.914 39.6559 72.0096 39.8681L72.0722 39.9581C72.0768 39.9696 72.0808 39.9816 72.0842 39.9939C72.094 40.0289 72.0748 40.0848 72.0569 40.1356L72.0561 40.1379C72.0337 40.2015 72.0145 40.2561 72.0603 40.2514C72.1961 40.2375 72.363 40.2484 72.5446 40.2623C72.6783 40.2728 72.819 40.2832 72.9635 40.29C73.3471 40.7826 73.7081 41.2919 74.0525 41.8562C74.2065 42.1069 74.3619 42.3808 74.5042 42.6491C74.3983 42.868 74.3059 43.0784 74.2496 43.2786C74.1742 43.5362 74.2283 43.8267 74.2758 44.1935C74.3127 44.4709 74.3459 44.7883 74.319 45.1804C74.2698 45.8974 74.3965 46.587 74.529 47.064L74.539 47.099C74.5642 47.1868 74.5895 47.2751 74.6153 47.3729C74.7191 47.7888 74.8681 48.3234 74.8168 49.3877C74.7588 50.397 74.4672 51.2256 74.2163 51.8056C74.0886 52.1018 73.9676 52.3432 73.8853 52.5279C73.7422 52.8487 73.541 53.2213 73.3195 53.5783C72.9748 54.1385 72.5863 54.6462 72.39 54.949C72.3197 55.0577 72.2456 55.1763 72.1686 55.2974C71.9507 55.6371 71.6724 56.044 71.2173 56.4949C70.7341 56.9691 70.3763 57.1669 69.9876 57.319C69.8282 57.3809 69.6178 57.3352 69.4065 57.2821L69.3805 57.2753C69.0914 57.2001 68.7986 57.1238 68.5953 57.328C68.5494 57.3746 68.5095 57.4395 68.4674 57.508L68.463 57.5153C68.3828 57.6458 68.293 57.7876 68.1433 57.834C68.121 57.8409 68.0971 57.8424 68.0722 57.8408L68.0295 57.8645C67.9923 57.8639 67.9539 57.8575 67.9161 57.851L67.9122 57.8504C67.8409 57.8381 67.7718 57.8262 67.7151 57.853C67.4997 57.9549 67.2977 58.0642 67.1167 58.157C66.8868 58.2754 66.6772 58.3723 66.5324 58.39C66.275 58.4214 66.0415 58.5684 65.7972 58.7094C65.6101 58.8175 65.4043 58.9257 65.1966 58.9707C64.6083 59.0997 63.8018 59.3694 62.9008 59.5953C62.5604 59.6806 62.2679 59.5857 61.9026 59.4463C61.6765 59.359 61.4269 59.2535 61.1221 59.1527C60.9545 59.0974 60.799 59.1536 60.6509 59.2072L60.6333 59.2136C60.4925 59.2645 60.3589 59.3089 60.2436 59.247C60.1417 59.1923 60.1041 59.0364 60.0711 58.8887L60.0675 58.8728C60.0317 58.7143 59.9991 58.5699 59.8894 58.5708C59.829 58.5713 59.7423 58.6238 59.6372 58.6844C59.5956 58.7083 59.5509 58.7334 59.5041 58.7572C59.5139 58.7296 59.5214 58.7045 59.5267 58.6855C59.563 58.5548 59.4811 58.4558 59.4004 58.3583L59.3926 58.3489C59.3593 58.3087 59.3266 58.2688 59.3028 58.2273C59.2151 58.075 58.9933 57.9799 58.8189 57.9203C58.745 57.8953 58.6945 57.8292 58.6374 57.7521L58.6314 57.744C58.5823 57.6775 58.5277 57.6035 58.4482 57.5389C58.4009 57.5005 58.3761 57.4453 58.3562 57.3995L58.355 57.3968C58.3411 57.3648 58.3292 57.3376 58.3129 57.3244C58.2985 57.3128 58.269 57.3428 58.2355 57.3768L58.2347 57.3775C58.2104 57.4022 58.184 57.4289 58.1599 57.4431C58.1021 57.4771 58.0501 57.4711 58.0263 57.4403C58.0154 57.4261 58.0107 57.4066 58.0061 57.3872L58.0058 57.3858C58.0005 57.3637 57.9953 57.3415 57.9805 57.3274C57.9131 57.2632 57.8174 57.2631 57.7164 57.263L57.708 57.263C57.5939 57.263 57.473 57.2603 57.3889 57.1675C57.3626 57.1384 57.3423 57.0935 57.3232 57.0501L57.3219 57.0471C57.3024 57.0027 57.2836 56.9601 57.2597 56.9375C57.1645 56.8478 57.0152 56.8644 56.8726 56.8803L56.8557 56.8822C56.7577 56.8931 56.6644 56.9019 56.5998 56.8755C56.4835 56.8279 56.3628 56.8871 56.2715 56.9319L56.2675 56.9338C56.2201 56.9571 56.181 56.9761 56.156 56.9727C56.141 56.9583 56.1261 56.9431 56.1119 56.9279C56.1016 56.9099 56.0909 56.8914 56.0745 56.8833C56.0732 56.8827 56.0717 56.8823 56.0705 56.8817C55.994 56.7921 55.928 56.6929 55.8645 56.5939C55.7211 56.3709 55.5919 56.1509 55.3656 56.0269C55.3183 56.0009 55.2469 56.0014 55.1732 56.0019L55.166 56.0019C55.0728 56.0026 54.9767 56.0017 54.925 55.9491C54.8017 55.8233 54.7291 55.6426 54.6639 55.4658C54.5647 55.1989 54.4824 54.9415 54.2329 54.8605C54.1552 54.8354 54.0596 54.8277 53.9622 54.8199L53.9452 54.8185C53.8876 54.8139 53.8296 54.8089 53.7751 54.7999C53.8307 54.7637 53.8805 54.7269 53.9269 54.6926C54.0225 54.6219 54.1044 54.5615 54.1952 54.5344C54.4101 54.4708 54.6865 54.3586 54.831 54.2132C54.8703 54.1739 54.918 54.1344 54.966 54.0948C55.0867 53.9952 55.209 53.8929 55.2114 53.787C55.2125 53.7153 55.2099 53.5427 55.0641 53.5551C55.0329 53.5577 54.9873 53.5814 54.9364 53.608L54.9334 53.6095C54.8399 53.6583 54.7284 53.7155 54.6532 53.6689C54.6406 53.6611 54.6276 53.652 54.6145 53.6423L54.6124 53.6408C54.5606 53.6024 54.5031 53.5598 54.4227 53.5899C54.3289 53.6251 54.2471 53.6977 54.1521 53.783L54.1428 53.7913C54.0208 53.9003 53.8765 54.0294 53.6515 54.1181C53.6059 54.136 53.5765 54.1246 53.5543 54.116C53.5388 54.11 53.5265 54.1054 53.5147 54.1132C53.5011 54.1221 53.4771 54.1464 53.447 54.1773L53.4416 54.1828C53.3344 54.2921 53.1539 54.4761 53.0519 54.3613C53.024 54.3298 53.0049 54.2839 52.9882 54.2426L52.9873 54.2404C52.963 54.1807 52.9431 54.1317 52.9047 54.1512C52.89 54.1588 52.8745 54.1678 52.8587 54.1774C52.8329 54.1334 52.8073 54.0893 52.7819 54.0451C52.7857 53.964 52.732 53.894 52.6648 53.8062L52.6605 53.8006C52.6437 53.7787 52.6262 53.7554 52.6086 53.7308C52.5612 53.6423 52.5151 53.5535 52.4702 53.4645C52.4458 53.3867 52.4308 53.2971 52.4322 53.193C52.4351 52.9841 52.5175 52.7587 52.6033 52.543C52.6394 52.4521 52.676 52.3624 52.7075 52.2763C52.7264 52.2925 52.7455 52.3059 52.7656 52.3132C52.9031 52.3631 53.0872 52.3069 53.2558 52.2542L53.2638 52.2517C53.3729 52.2174 53.4754 52.1854 53.5538 52.1842C53.6986 52.182 53.8209 52.1007 53.9124 52.0398L53.9171 52.0366C53.9648 52.0048 54.0039 51.979 54.0326 51.9726C54.0557 51.9676 54.0737 51.977 54.0923 51.9867C54.1085 51.9952 54.1253 52.0039 54.146 52.0033C54.3914 51.9953 54.4802 51.8991 54.605 51.7637L54.6147 51.7533C54.6864 51.6754 54.7713 51.5849 54.9023 51.4882C54.9113 51.4817 54.9199 51.4756 54.9282 51.4698C54.8411 51.326 54.7573 51.1799 54.6768 51.0318C54.5348 51.0288 54.4092 51.1266 54.2982 51.216L54.2944 51.2191C54.2273 51.273 54.1652 51.3227 54.1068 51.3417C54.0813 51.3499 54.0617 51.3685 54.0418 51.3875L54.0417 51.3876C54.0262 51.4023 54.0104 51.4174 53.9916 51.4279C53.855 51.5043 53.7198 51.4991 53.5937 51.4917L53.5869 51.4914C53.5172 51.4874 53.4503 51.4835 53.3877 51.4942C53.368 51.4976 53.3485 51.5022 53.3296 51.5068C53.3021 51.5136 53.2759 51.5199 53.2512 51.5211C53.195 51.5239 53.142 51.4965 53.0844 51.4658L53.0807 51.4638C53.0523 51.4487 53.0226 51.4328 52.9907 51.4196C52.948 51.4019 52.8876 51.4173 52.8243 51.4334L52.8223 51.4339C52.777 51.4454 52.7303 51.4571 52.6873 51.4573C52.6094 51.4576 52.5567 51.4066 52.5083 51.3588C52.4872 51.338 52.4666 51.318 52.4452 51.3029C52.4364 51.2968 52.425 51.2973 52.4113 51.3025C52.3227 51.2276 52.2357 51.1557 52.1513 51.0845C51.7307 50.7282 51.3653 50.3756 51.322 49.6969C51.3145 49.5692 51.2726 49.4427 51.2153 49.3178C51.1635 48.8832 51.1358 48.4473 51.132 48.013C51.2579 47.9068 51.3596 47.788 51.4357 47.6568C51.5788 47.4111 51.5912 47.1828 51.6152 46.9114C51.6331 46.7112 51.6579 46.4883 51.752 46.2325C51.9108 45.8021 52.0657 45.3808 52.1887 44.9101C52.3094 44.4428 52.4627 43.9154 52.574 43.5514C52.634 43.3509 52.8155 43.1721 52.9877 43.0164C53.2291 42.799 53.4516 42.6265 53.3075 42.4062C53.2615 42.3357 53.1687 42.247 53.0796 42.1591C53.0161 42.0966 52.9549 42.0343 52.9125 41.9805C52.9635 41.9071 53.0154 41.8342 53.0685 41.7622C53.2632 41.6778 53.5007 41.5354 53.468 41.256C53.5281 41.1843 53.5866 41.118 53.6457 41.0531C53.7728 40.9116 53.9021 40.7771 54.0361 40.6448C54.08 40.6016 54.1246 40.5584 54.1698 40.5154C54.1702 40.515 54.1707 40.5146 54.1711 40.5142C54.2622 40.4275 54.3519 40.3474 54.4437 40.2676C54.4829 40.2336 54.5223 40.1999 54.562 40.1664C54.6628 40.0814 54.766 39.9974 54.8697 39.917L54.8902 39.9012C54.9385 39.864 54.9883 39.8256 55.0357 39.7913C55.1247 39.7262 55.2154 39.6619 55.307 39.5993C55.4551 39.4981 55.6058 39.4011 55.7598 39.3072C55.7851 39.2919 55.8213 39.2887 55.8611 39.2995C55.901 39.3104 55.9412 39.3341 55.9745 39.3668C55.9038 39.2974 55.8561 39.217 55.8336 39.1339C55.8111 39.0509 55.8202 38.9763 55.8562 38.9256C56.1148 38.562 56.4082 38.205 56.7273 37.8707C57.0849 37.497 57.4739 37.1498 57.9064 36.8324C58.1638 37.1583 58.3941 37.3875 58.6261 37.4322C58.745 37.4548 58.8841 37.4269 58.9552 37.3175C59.0183 37.2192 59.0433 37.0805 59.0699 36.9479C59.0978 36.8093 59.1273 36.6774 59.2036 36.6093C59.3321 36.4942 59.4262 36.2851 59.5388 36.0664C59.5799 35.9868 59.6231 35.9059 59.6705 35.8283C60.1595 35.621 60.6758 35.4555 61.2077 35.3373C61.4185 35.3662 61.6087 35.3953 61.7693 35.3772C61.9133 35.361 62.0466 35.2771 62.1847 35.175C62.2694 35.1655 62.3544 35.1571 62.4397 35.1499Z" fill="#60A5FA"/>
</svg>
