<svg width="150" height="150" viewBox="0 0 150 150" fill="none" xmlns="http://www.w3.org/2000/svg">
<path d="M113.21 55.2723C115.739 54.902 119.951 55.8799 121.662 58.1196C122.266 58.7941 122.765 59.5815 123.134 60.4177C124.141 62.7529 124.238 65.1799 123.89 67.8589C123.48 70.6496 122.915 72.1363 122.309 73.6622C122.06 74.2672 121.692 74.7683 121.317 75.2521C120.775 75.96 120.212 76.6588 119.858 77.7591C119.775 78.0141 119.707 78.2894 119.638 78.5725L119.632 78.5958C119.555 78.9078 119.471 79.2384 119.358 79.5721L119.369 79.5453C119.286 79.7945 119.187 80.0425 119.065 80.2823C118.963 80.4809 118.839 80.64 118.716 80.7947L118.708 80.8061C118.576 80.9723 118.447 81.135 118.349 81.34C117.972 82.1278 117.602 82.8981 117.263 83.5682C116.821 84.444 116.426 85.1588 116.133 85.5744C115.606 86.3236 115.15 87.1896 114.646 88.072C114.263 88.7422 113.862 89.4077 113.404 90.0112C112.106 91.7288 110.307 94.0945 108.214 96.3752C107.423 97.2387 106.603 97.8155 105.536 98.5045C104.871 98.9313 104.107 99.4014 103.169 99.9862C102.636 100.317 102.258 100.7 101.901 101.051C101.572 101.374 101.26 101.67 100.87 101.862C100.526 102.032 100.231 102.013 99.9539 101.992L99.9426 101.992C99.6375 101.969 99.353 101.949 99.0315 102.172C98.8581 102.292 98.6778 102.492 98.4594 102.728C98.373 102.822 98.28 102.921 98.1797 103.023C98.1694 102.989 98.1564 102.962 98.1454 102.941C98.0671 102.797 97.6707 102.914 97.2822 103.021C97.1269 103.064 96.9723 103.106 96.8405 103.131C96.3559 103.222 95.5437 103.593 94.9256 103.88C94.664 104.001 94.404 104.061 94.1007 104.128L94.0499 104.139C93.7931 104.195 93.5053 104.258 93.1576 104.365C92.946 104.43 92.771 104.448 92.6264 104.463L92.6191 104.464C92.5175 104.474 92.4308 104.482 92.3558 104.505C92.2895 104.524 92.2543 104.588 92.2146 104.66L92.2144 104.66C92.1858 104.712 92.1545 104.768 92.1075 104.815C91.9952 104.927 91.8265 105.01 91.6971 105.036C91.6374 105.048 91.5865 105.047 91.536 105.046L91.5335 105.046C91.4755 105.045 91.4176 105.044 91.3454 105.062C91.0244 105.143 90.7373 105.293 90.4384 105.449L90.3959 105.472C90.0506 105.652 89.6861 105.837 89.2462 105.922C89.1076 105.949 88.9544 105.96 88.8063 105.969L88.7914 105.97C88.6416 105.979 88.4966 105.989 88.3779 106.014C87.8794 106.119 87.4513 106.356 87.0523 106.569C86.787 106.711 86.5339 106.843 86.287 106.918C85.8342 107.054 85.6171 107.246 85.4571 107.387C85.374 107.46 85.3057 107.52 85.2272 107.551C85.1519 107.563 85.0753 107.574 85.0002 107.585L84.9992 107.585C84.9294 107.589 84.8573 107.593 84.7923 107.61C84.7874 107.611 84.7826 107.612 84.7777 107.614C84.3558 107.665 83.9356 107.695 83.5212 107.72C82.5954 107.774 81.67 107.805 80.7287 107.98C80.5329 108.017 80.3378 108.094 80.1384 108.172L80.1134 108.182C79.8585 108.283 79.5954 108.384 79.3189 108.405C78.6662 108.453 77.9984 108.407 77.3415 108.349C76.3579 108.262 75.4071 108.149 74.5334 108.305C74.2646 108.354 74.0006 108.429 73.7346 108.505L73.6802 108.521C73.5217 108.566 73.3618 108.611 73.2002 108.65C73.2357 108.573 73.2552 108.501 73.2733 108.434C73.3105 108.296 73.3427 108.177 73.4969 108.079C73.8621 107.845 74.2662 107.517 74.2214 107.277C74.2094 107.212 74.2194 107.139 74.2301 107.067C74.2572 106.883 74.2837 106.697 73.9587 106.611C73.7391 106.553 73.1788 106.415 72.8148 106.544C72.7359 106.572 72.6863 106.631 72.6311 106.696L72.6304 106.697L72.6298 106.698C72.5308 106.815 72.4133 106.954 72.0713 106.974C72.0136 106.977 71.9508 106.98 71.886 106.982L71.8601 106.982C71.6083 106.99 71.3333 106.997 71.2232 107.085C71.092 107.19 71.111 107.319 71.1338 107.47L71.1345 107.474C71.1637 107.67 71.1985 107.902 70.9096 108.162C70.8518 108.213 70.7466 108.226 70.6671 108.235C70.6112 108.241 70.5683 108.247 70.5629 108.263C70.5569 108.282 70.572 108.322 70.5913 108.374L70.5916 108.375C70.6595 108.556 70.7786 108.874 70.1961 108.846C70.0401 108.839 69.8629 108.81 69.704 108.784L69.6853 108.781C69.4597 108.744 69.2747 108.714 69.2447 108.76C69.2332 108.778 69.2243 108.798 69.2166 108.819C69.0289 108.797 68.8411 108.773 68.6532 108.748C68.4184 108.665 68.0739 108.635 67.6554 108.593C67.5535 108.583 67.4461 108.572 67.3346 108.559C66.9679 108.502 66.6006 108.442 66.2331 108.378C65.945 108.312 65.6344 108.224 65.3227 108.109C64.6929 107.877 64.1642 107.564 63.653 107.253C63.4369 107.122 63.2264 106.99 63.0136 106.866C63.1047 106.873 63.1873 106.877 63.2523 106.873C63.6993 106.846 63.9131 106.661 64.1053 106.491L64.108 106.488C64.2352 106.376 64.355 106.27 64.5298 106.218C64.8504 106.122 64.8506 105.945 64.8508 105.814V105.812C64.8508 105.744 64.8515 105.688 64.8959 105.663C64.9315 105.642 65.0053 105.642 65.0817 105.642H65.0837C65.1508 105.642 65.2202 105.642 65.2667 105.628C65.8274 105.46 65.6955 105.288 65.5055 105.041L65.5023 105.037C65.3964 104.899 65.2734 104.737 65.2382 104.538C65.2141 104.33 65.2436 104.276 65.5244 104.24C65.3316 104.108 65.1396 103.975 64.9485 103.841C64.8658 103.833 64.7933 103.884 64.6879 103.97C64.5013 104.124 63.9726 104.096 63.5715 104.071L63.541 104.069C63.3665 104.058 63.2154 104.048 63.1249 104.057C62.6161 104.105 62.7107 104.338 62.7973 104.544L62.7976 104.545C62.8449 104.658 62.8887 104.763 62.8251 104.823C62.7982 104.849 62.8215 104.885 62.8453 104.922L62.8457 104.922L62.8461 104.923C62.8644 104.951 62.8831 104.98 62.879 105.005C62.8487 105.186 62.5327 105.26 62.2367 105.326L62.2275 105.328C62.0614 105.365 61.903 105.4 61.8073 105.452C61.7777 105.469 61.7529 105.486 61.7296 105.504C61.6955 105.529 61.6623 105.553 61.6151 105.57C61.5317 105.599 61.3904 105.603 61.2268 105.6L61.2386 105.602C61.1909 105.602 61.1413 105.6 61.0908 105.599L61.0637 105.598C60.9565 105.596 60.8457 105.593 60.7393 105.594C60.5907 105.596 60.5229 105.653 60.4517 105.713L60.4503 105.714C60.3997 105.757 60.3466 105.801 60.2623 105.827C60.1096 105.875 59.833 105.836 59.5768 105.797L59.5686 105.796C59.46 105.78 59.355 105.764 59.2649 105.755C59.2273 105.752 59.2069 105.759 59.1986 105.775C58.7752 105.719 58.3698 105.664 57.9752 105.606C56.0037 105.307 54.2669 104.96 51.9956 103.751C51.5675 103.522 51.0943 103.309 50.6099 103.103C49.1302 102.304 47.6963 101.431 46.3137 100.494C46.1185 100.18 45.851 99.8501 45.5116 99.5016C44.8741 98.8464 44.146 98.3012 43.3047 97.6281C42.6847 97.1312 42.0032 96.5635 41.2766 95.8304C40.0548 94.5955 38.8451 93.3112 37.498 91.852C36.1534 90.4034 34.7101 88.6648 33.7428 87.3981C33.2084 86.705 32.7822 85.888 32.4052 85.1134C31.8778 84.0303 31.4563 83.0406 30.9036 82.6164C30.7341 82.486 30.5225 82.3874 30.3145 82.2906L30.2852 82.2769C30.1304 82.2048 29.9787 82.1321 29.8496 82.0489C29.6873 81.7241 29.527 81.3939 29.3722 81.0624C29.209 80.4126 28.9124 79.4455 28.3402 78.645C28.2052 78.2963 28.0727 77.9394 27.9529 77.5975C27.6905 76.8544 27.4549 76.1083 27.2468 75.3605C27.1789 75.1161 27.1117 74.8647 27.0483 74.6149L27.0466 74.6076C26.9187 74.1035 26.8032 73.5981 26.7008 73.0917C26.6571 72.8757 26.6157 72.6598 26.5768 72.444C26.4787 71.899 26.3922 71.3358 26.326 70.791C26.2909 70.5027 26.259 70.2085 26.2322 69.9142C26.1884 69.4359 26.1574 68.9606 26.1385 68.479C26.1085 67.7047 26.1128 66.9365 26.1521 66.1691C26.1586 66.0438 26.1853 65.9232 26.2271 65.835C26.269 65.7467 26.3151 65.6843 26.3698 65.6844C26.2537 65.6843 26.1546 65.5876 26.0686 65.3989C25.9828 65.2149 25.9323 64.9486 25.9277 64.6857C25.9405 62.8694 25.8651 60.2367 28.1662 58.8369C30.2271 57.7211 32.1736 57.7764 34.0665 57.6347C34.3404 57.6221 34.5934 57.6117 34.8699 57.6047C35.2001 58.0907 35.6599 58.4555 36.5063 58.689C36.9407 58.8083 37.5673 58.9259 38.0531 58.9429C38.4897 58.9562 38.8482 58.914 39.202 58.8967C39.5733 58.8812 39.9427 58.89 40.363 59.0736C41.0672 59.3819 41.7909 59.7392 42.462 60.2537C42.7071 60.4415 42.9438 60.6481 43.1662 60.8714C44.2815 62.6199 44.7419 64.3671 45.1865 66.0541L45.2002 66.1062L45.1973 66.0925C45.2741 66.3787 45.3597 66.668 45.4524 66.9556C45.5831 67.6459 45.7529 68.2862 45.9651 68.8036C46.1555 69.2675 46.4241 69.6573 46.7228 70.0251C46.8531 70.2845 46.9846 70.5346 47.1233 70.789C48.0145 72.4215 49.0827 73.9747 50.2681 75.4281C51.0368 76.678 51.9255 77.9629 53.3022 79.4409C53.8958 80.0756 54.4753 80.7144 55.0536 81.3083C55.9075 82.1861 56.766 82.9693 57.6259 83.4935C58.2003 83.8441 58.748 84.2869 59.3151 84.709C60.0694 85.2726 60.8698 85.8018 61.71 85.9912C62.2387 86.1109 62.737 86.1687 63.1901 86.2047C63.9157 86.2635 64.5311 86.2699 65.0382 86.3965C65.3061 86.4634 65.5641 86.51 65.8111 86.541C66.4575 86.6219 67.0791 86.6083 67.6413 86.5754C68.5836 86.5201 69.3625 86.4173 70.0639 86.5723C70.1716 86.5956 70.292 86.6259 70.4289 86.6591C71.1529 86.8331 72.3544 87.0935 74.0582 86.7658C74.6624 86.6488 75.2201 86.4352 75.7539 86.2173C76.5377 85.8987 77.2805 85.5712 78.1298 85.4918C78.2553 85.48 78.3944 85.5064 78.522 85.5307L78.5274 85.5317C78.6912 85.563 78.8347 85.5894 78.9026 85.5252C79.1014 85.337 79.4297 85.1033 79.7795 84.8445C80.0367 84.6545 80.3064 84.4506 80.5478 84.2444C82.6369 83.6271 84.6881 82.8762 86.6262 81.9954C87.5161 81.5906 88.3832 81.157 89.2067 80.6976C89.7406 80.6632 90.2633 80.5984 90.7888 80.4602C91.4702 80.2804 92.2578 79.8654 93.1555 79.2686C93.6963 78.9064 94.2687 78.4823 94.8257 77.9997L94.8062 78.0215C94.929 77.9128 95.0624 77.7884 95.2034 77.6512C96.6507 76.2323 97.7951 74.0867 98.3409 72.7354C98.4591 72.4453 98.5731 72.1518 98.6901 71.8373C99.0828 70.7256 99.6859 69.2198 100.175 66.8887L100.145 67.0162C100.175 66.8419 100.207 66.6652 100.241 66.4861C100.794 63.1558 102.633 59.3931 105.363 57.6895C106.663 56.8142 107.808 56.4115 108.629 56.1384C109.681 55.794 110.855 55.5589 112.012 55.4135L111.912 55.4249C112.344 55.3602 112.744 55.3105 113.21 55.2723Z" fill="#60A5FA"/>
<path d="M73.1715 41.1916C73.8165 41.1373 74.4705 41.1399 75.1223 41.1962C75.5877 41.4352 76.0501 41.6945 76.6515 41.9798C76.9107 42.1033 77.1423 42.2754 77.3575 42.4463C77.6735 42.6979 77.9523 42.9458 78.2627 43.0413C78.473 43.1066 78.6304 43.278 78.7824 43.4524C78.9893 43.6883 79.1725 43.9204 79.4975 43.9273C79.7021 43.9317 79.9083 43.9103 80.1038 43.896C80.4144 43.8729 80.6909 43.8629 80.8425 43.9727C81.1285 44.1801 81.4544 44.2696 81.7445 44.3581C82.0948 44.4661 82.3852 44.5659 82.4513 44.8411C82.4611 44.8827 82.4693 44.9333 82.478 44.9902C82.5239 45.2912 82.58 45.7578 83.0488 46.0778C83.21 46.1882 83.4276 46.2443 83.6424 46.2997L83.6672 46.3061C83.9729 46.3836 84.2742 46.472 84.3863 46.7207L84.4597 46.8261C84.465 46.8396 84.4696 46.8536 84.4737 46.8681C84.4852 46.9091 84.4627 46.9746 84.4417 47.0341L84.4408 47.0368C84.4146 47.1114 84.392 47.1754 84.4456 47.1699C84.6048 47.1536 84.8004 47.1664 85.0132 47.1826C85.1699 47.195 85.3347 47.2071 85.5041 47.2151C85.9537 47.7923 86.3767 48.3892 86.7803 49.0505C86.9608 49.3443 87.1429 49.6652 87.3096 49.9797C87.1855 50.2362 87.0772 50.4828 87.0112 50.7174C86.9229 51.0192 86.9862 51.3596 87.0419 51.7895C87.0852 52.1146 87.1241 52.4865 87.0926 52.946C87.0349 53.7863 87.1834 54.5944 87.3387 55.1533L87.3504 55.1944C87.3799 55.2972 87.4096 55.4008 87.4399 55.5154C87.5614 56.0027 87.7361 56.6292 87.676 57.8764C87.608 59.0592 87.2663 60.0303 86.9723 60.71C86.8225 61.0571 86.6808 61.3399 86.5843 61.5564C86.4166 61.9323 86.1809 62.369 85.9213 62.7873C85.5173 63.4438 85.0621 64.0387 84.832 64.3936C84.7497 64.5209 84.6628 64.6599 84.5726 64.8019C84.3173 65.2 83.9912 65.6768 83.4578 66.2052C82.8916 66.761 82.4722 66.9927 82.0167 67.1709C81.83 67.2435 81.5834 67.1899 81.3357 67.1277L81.3053 67.1197C80.9665 67.0316 80.6234 66.9422 80.3851 67.1815C80.3314 67.2361 80.2846 67.3122 80.2353 67.3925L80.23 67.401C80.1361 67.554 80.0309 67.7201 79.8554 67.7745C79.8294 67.7825 79.8013 67.7843 79.7722 67.7824L79.7221 67.8102C79.6785 67.8095 79.6335 67.802 79.5892 67.7944L79.5846 67.7936C79.5011 67.7793 79.4201 67.7654 79.3537 67.7967C79.1012 67.9161 78.8645 68.0442 78.6524 68.153C78.383 68.2917 78.1374 68.4053 77.9677 68.426C77.666 68.4629 77.3924 68.635 77.1061 68.8004C76.8868 68.927 76.6457 69.0538 76.4023 69.1065C75.7129 69.2577 74.7677 69.5738 73.7119 69.8385C73.3129 69.9384 72.9702 69.8272 72.5421 69.6639C72.2772 69.5615 71.9847 69.438 71.6275 69.3198C71.4311 69.255 71.2488 69.3209 71.0752 69.3837L71.0547 69.3911C70.8897 69.4509 70.7331 69.5028 70.5979 69.4304C70.4786 69.3662 70.4345 69.1835 70.3958 69.0104L70.3916 68.9918C70.3497 68.806 70.3114 68.6369 70.1829 68.638C70.1121 68.6385 70.0106 68.7 69.8873 68.771C69.8386 68.7991 69.7862 68.8284 69.7314 68.8564C69.7428 68.824 69.7516 68.7946 69.7579 68.7723C69.8004 68.6192 69.7044 68.5031 69.6098 68.3889L69.6007 68.3778C69.5617 68.3308 69.5233 68.284 69.4954 68.2354C69.3927 68.0569 69.1327 67.9455 68.9284 67.8756C68.8418 67.8463 68.7826 67.7689 68.7158 67.6785L68.7087 67.669C68.6512 67.591 68.5872 67.5043 68.494 67.4286C68.4386 67.3836 68.4095 67.319 68.3861 67.2653L68.3847 67.2621C68.3684 67.2247 68.3546 67.1928 68.3355 67.1773C68.3185 67.1637 68.2839 67.1988 68.2447 67.2386L68.2438 67.2396C68.2154 67.2685 68.1844 67.2998 68.1561 67.3164C68.0885 67.3563 68.0274 67.3492 67.9996 67.3131C67.9868 67.2964 67.9812 67.2736 67.9759 67.2509L67.9755 67.2493C67.9694 67.2233 67.9633 67.1973 67.9459 67.1808C67.8669 67.1056 67.7548 67.1055 67.6364 67.1054L67.6266 67.1054C67.4928 67.1053 67.3512 67.1022 67.2527 66.9935C67.2218 66.9593 67.198 66.9067 67.1756 66.8558L67.1741 66.8524C67.1512 66.8003 67.1292 66.7503 67.1012 66.7239C66.9896 66.6188 66.8147 66.6383 66.6476 66.6569L66.6277 66.6591C66.5129 66.6719 66.4036 66.6821 66.3279 66.6513C66.1916 66.5955 66.0501 66.6648 65.9432 66.7173L65.9385 66.7196C65.8829 66.7469 65.8371 66.7691 65.8078 66.7652C65.7902 66.7483 65.7728 66.7305 65.7561 66.7126C65.744 66.6916 65.7316 66.6698 65.7123 66.6604C65.7108 66.6597 65.7091 66.6592 65.7076 66.6585C65.618 66.5534 65.5406 66.4372 65.4662 66.3212C65.2982 66.0599 65.1467 65.8021 64.8816 65.6567C64.8262 65.6263 64.7424 65.6269 64.6561 65.6274L64.6477 65.6275C64.5384 65.6283 64.4258 65.6273 64.3652 65.5655C64.2208 65.4182 64.1357 65.2065 64.0592 64.9992C63.943 64.6864 63.8465 64.3848 63.5542 64.2899C63.4631 64.2604 63.3511 64.2515 63.237 64.2423L63.217 64.2407C63.1496 64.2353 63.0815 64.2294 63.0177 64.2188C63.0829 64.1765 63.1412 64.1334 63.1956 64.0932C63.3076 64.0103 63.4036 63.9395 63.51 63.9077C63.7618 63.8332 64.0858 63.7017 64.2551 63.5314C64.3011 63.4853 64.357 63.439 64.4133 63.3925C64.5547 63.2759 64.6981 63.156 64.7008 63.0319C64.7021 62.9479 64.6991 62.7456 64.5283 62.7601C64.4916 62.7631 64.4382 62.791 64.3786 62.8221L64.3751 62.8239C64.2655 62.8811 64.1348 62.9481 64.0468 62.8935C64.032 62.8844 64.0167 62.8737 64.0013 62.8623L63.9989 62.8605C63.9382 62.8155 63.8709 62.7656 63.7767 62.8009C63.6667 62.8421 63.5708 62.9273 63.4595 63.0272L63.4486 63.0369C63.3057 63.1647 63.1365 63.316 62.8729 63.4199C62.8195 63.4408 62.7849 63.4275 62.759 63.4174C62.7407 63.4104 62.7264 63.405 62.7125 63.4141C62.6966 63.4246 62.6685 63.4531 62.6332 63.4892L62.6268 63.4957C62.5012 63.6238 62.2898 63.8394 62.1702 63.7049C62.1375 63.6679 62.1151 63.6141 62.0955 63.5658L62.0945 63.5633C62.0661 63.4932 62.0427 63.4358 61.9977 63.4587C61.9804 63.4676 61.9623 63.4781 61.9438 63.4894C61.9135 63.4379 61.8835 63.3861 61.8538 63.3343C61.8582 63.2394 61.7953 63.1572 61.7165 63.0544L61.7115 63.0479C61.6918 63.0222 61.6713 62.9949 61.6507 62.9661C61.5952 62.8623 61.5411 62.7583 61.4886 62.654C61.4599 62.5628 61.4423 62.4578 61.444 62.3358C61.4473 62.091 61.544 61.8269 61.6445 61.574C61.6868 61.4675 61.7297 61.3624 61.7666 61.2615C61.7887 61.2805 61.8111 61.2962 61.8347 61.3048C61.9958 61.3632 62.2115 61.2974 62.4091 61.2356L62.4185 61.2327C62.5464 61.1926 62.6664 61.155 62.7584 61.1537C62.9281 61.1511 63.0714 61.0557 63.1786 60.9843L63.1841 60.9807C63.24 60.9434 63.2859 60.9131 63.3195 60.9057C63.3465 60.8998 63.3676 60.9108 63.3894 60.9222C63.4084 60.9321 63.4281 60.9423 63.4524 60.9416C63.7399 60.9322 63.844 60.8194 63.9903 60.6609L64.0016 60.6486C64.0856 60.5573 64.1851 60.4513 64.3386 60.3379C64.3492 60.3304 64.3593 60.3232 64.369 60.3164C64.267 60.1479 64.1687 59.9767 64.0744 59.8032C63.9079 59.7996 63.7607 59.9142 63.6307 60.019L63.6262 60.0226C63.5476 60.0858 63.4749 60.1441 63.4064 60.1662C63.3765 60.1759 63.3536 60.1977 63.3302 60.22L63.3301 60.2201C63.3119 60.2373 63.2935 60.255 63.2714 60.2673C63.1114 60.3569 62.9529 60.3508 62.8052 60.3421L62.7972 60.3417C62.7155 60.337 62.6371 60.3325 62.5637 60.345C62.5406 60.349 62.5177 60.3544 62.4957 60.3598C62.4634 60.3677 62.4327 60.3752 62.4037 60.3766C62.3379 60.3798 62.2758 60.3477 62.2083 60.3117L62.204 60.3094C62.1707 60.2917 62.1359 60.2731 62.0984 60.2576C62.0484 60.2369 61.9777 60.2549 61.9035 60.2738L61.9011 60.2744C61.8481 60.2879 61.7933 60.3015 61.7429 60.3017C61.6517 60.3022 61.5899 60.2424 61.5331 60.1864C61.5084 60.1619 61.4843 60.1385 61.4592 60.1208C61.449 60.1136 61.4355 60.1142 61.4195 60.1204C61.3157 60.0326 61.2137 59.9484 61.1148 59.8649C60.6219 59.4474 60.1937 59.0342 60.143 58.2388C60.1342 58.0891 60.0851 57.9409 60.0179 57.7945C59.9573 57.2853 59.9247 56.7744 59.9204 56.2655C60.0678 56.141 60.187 56.0018 60.2762 55.848C60.4439 55.5601 60.4584 55.2926 60.4865 54.9745C60.5076 54.7399 60.5366 54.4788 60.6469 54.1789C60.8329 53.6746 61.0145 53.1809 61.1586 52.6293C61.3001 52.0817 61.4797 51.4636 61.6102 51.037C61.6805 50.8021 61.8932 50.5926 62.095 50.4101C62.3778 50.1553 62.6385 49.9532 62.4697 49.695C62.4158 49.6123 62.3071 49.5084 62.2027 49.4054C62.1283 49.3322 62.0565 49.2592 62.0068 49.1961C62.0666 49.1102 62.1274 49.0247 62.1896 48.9403C62.4179 48.8415 62.6961 48.6746 62.6578 48.3471C62.7282 48.2631 62.7968 48.1854 62.8661 48.1094C63.0149 47.9435 63.1665 47.786 63.3235 47.6308C63.375 47.5803 63.4272 47.5296 63.4802 47.4793C63.4807 47.4788 63.4812 47.4783 63.4818 47.4778C63.5886 47.3762 63.6936 47.2824 63.8013 47.1889C63.8471 47.1491 63.8933 47.1095 63.9398 47.0703C64.0579 46.9706 64.1789 46.8721 64.3004 46.778L64.3245 46.7595C64.381 46.7159 64.4395 46.6709 64.495 46.6307C64.5992 46.5544 64.7055 46.479 64.8129 46.4057C64.9864 46.2871 65.1631 46.1734 65.3435 46.0633C65.3731 46.0454 65.4156 46.0417 65.4622 46.0544C65.509 46.0671 65.5561 46.0949 65.5951 46.1333C65.5123 46.0519 65.4564 45.9577 65.43 45.8602C65.4036 45.763 65.4142 45.6756 65.4565 45.6162C65.7596 45.1901 66.1034 44.7718 66.4773 44.3799C66.8963 43.9421 67.3522 43.5352 67.8591 43.1632C68.1607 43.5452 68.4306 43.8137 68.7024 43.8662C68.8418 43.8926 69.0048 43.8599 69.0881 43.7317C69.1621 43.6165 69.1913 43.454 69.2226 43.2986C69.2552 43.1362 69.2898 42.9815 69.3792 42.9018C69.5298 42.7669 69.6401 42.5219 69.7721 42.2655C69.8202 42.1723 69.8708 42.0775 69.9264 41.9866C70.4994 41.7436 71.1044 41.5497 71.7278 41.4112C71.9748 41.445 72.1977 41.4791 72.3859 41.4579C72.5547 41.439 72.7108 41.3406 72.8727 41.2209C72.9719 41.2098 73.0716 41.2 73.1715 41.1916Z" fill="#60A5FA"/>
</svg>
